HIERARCHY
ROOT Hips
{
	OFFSET 0.000000 0.000000 0.000000
	CHANNELS 6 Xposition Yposition Zposition Zrotation Yrotation Xrotation 
	JOINT LHipJoint
	{
		OFFSET 0.000000 0.000000 0.000000
		CHANNELS 3 Zrotation Yrotation Xrotation
		JOINT LeftUpLeg
		{
			OFFSET 1.363060 -1.794630 0.839290
			CHANNELS 3 Zrotation Yrotation Xrotation
			JOINT LeftLeg
			{
				OFFSET 2.448110 -6.726130 0.000000
				CHANNELS 3 Zrotation Yrotation Xrotation
				JOINT LeftFoot
				{
					OFFSET 2.562200 -7.039590 0.000000
					CHANNELS 3 Zrotation Yrotation Xrotation
					JOINT LeftToeBase
					{
						OFFSET 0.157640 -0.433110 2.322550
						CHANNELS 3 Zrotation Yrotation Xrotation
						End Site
						{
							OFFSET 0.000000 0.000000 0.000000
						}
					}
				}
			}
		}
	}
	JOINT RHipJoint
	{
		OFFSET 0.000000 0.000000 0.000000
		CHANNELS 3 Zrotation Yrotation Xrotation
		JOINT RightUpLeg
		{
			OFFSET -1.305520 -1.794630 0.839290
			CHANNELS 3 Zrotation Yrotation Xrotation
			JOINT RightLeg
			{
				OFFSET -2.542530 -6.985550 0.000000
				CHANNELS 3 Zrotation Yrotation Xrotation
				JOINT RightFoot
				{
					OFFSET -2.568260 -7.056230 0.000000
					CHANNELS 3 Zrotation Yrotation Xrotation
					JOINT RightToeBase
					{
						OFFSET -0.164730 -0.452590 2.363150
						CHANNELS 3 Zrotation Yrotation Xrotation
						End Site
						{
							OFFSET 0.000000 0.000000 0.000000
						}
					}
				}
			}
		}
	}
	JOINT LowerBack
	{
		OFFSET 0.000000 0.000000 0.000000
		CHANNELS 3 Zrotation Yrotation Xrotation
		JOINT Spine
		{
			OFFSET 0.028270 2.035590 -0.193380
			CHANNELS 3 Zrotation Yrotation Xrotation
			JOINT Spine1
			{
				OFFSET 0.056720 2.048850 -0.042750
				CHANNELS 3 Zrotation Yrotation Xrotation
				JOINT Neck
				{
					OFFSET 0.000000 0.000000 0.000000
					CHANNELS 3 Zrotation Yrotation Xrotation
					JOINT Neck1
					{
						OFFSET -0.054170 1.746240 0.172020
						CHANNELS 3 Zrotation Yrotation Xrotation
						JOINT Head
						{
							OFFSET 0.104070 1.761360 -0.123970
							CHANNELS 3 Zrotation Yrotation Xrotation
							End Site
							{
								OFFSET 0.000000 0.000000 0.000000
							}
						}
					}
				}
				JOINT LeftShoulder
				{
					OFFSET 0.000000 0.000000 0.000000
					CHANNELS 3 Zrotation Yrotation Xrotation
					JOINT LeftArm
					{
						OFFSET 3.362410 1.200890 -0.311210
						CHANNELS 3 Zrotation Yrotation Xrotation
						JOINT LeftForeArm
						{
							OFFSET 4.983000 -0.000000 -0.000000
							CHANNELS 3 Zrotation Yrotation Xrotation
							JOINT LeftHand
							{
								OFFSET 3.483560 -0.000000 -0.000000
								CHANNELS 3 Zrotation Yrotation Xrotation
								JOINT LeftFingerBase
								{
									OFFSET 0.000000 0.000000 0.000000
									CHANNELS 3 Zrotation Yrotation Xrotation
									JOINT LeftHandIndex1
									{
										OFFSET 0.715260 -0.000000 -0.000000
										CHANNELS 3 Zrotation Yrotation Xrotation
										End Site
										{
											OFFSET 0.000000 0.000000 0.000000
										}
									}
								}
								JOINT LThumb
								{
									OFFSET 0.000000 0.000000 0.000000
									CHANNELS 3 Zrotation Yrotation Xrotation
									End Site
									{
										OFFSET 0.000000 0.000000 0.000000
									}
								}
							}
						}
					}
				}
				JOINT RightShoulder
				{
					OFFSET 0.000000 0.000000 0.000000
					CHANNELS 3 Zrotation Yrotation Xrotation
					JOINT RightArm
					{
						OFFSET -3.136600 1.374050 -0.404650
						CHANNELS 3 Zrotation Yrotation Xrotation
						JOINT RightForeArm
						{
							OFFSET -5.241900 -0.000000 -0.000000
							CHANNELS 3 Zrotation Yrotation Xrotation
							JOINT RightHand
							{
								OFFSET -3.444170 -0.000000 -0.000000
								CHANNELS 3 Zrotation Yrotation Xrotation
								JOINT RightFingerBase
								{
									OFFSET 0.000000 0.000000 0.000000
									CHANNELS 3 Zrotation Yrotation Xrotation
									JOINT RightHandIndex1
									{
										OFFSET -0.622530 -0.000000 -0.000000
										CHANNELS 3 Zrotation Yrotation Xrotation
										End Site
										{
											OFFSET 0.000000 0.000000 0.000000
										}
									}
								}
								JOINT RThumb
								{
									OFFSET 0.000000 0.000000 0.000000
									CHANNELS 3 Zrotation Yrotation Xrotation
									End Site
									{
										OFFSET 0.000000 0.000000 0.000000
									}
								}
							}
						}
					}
				}
			}
		}
	}
}
MOTION
Frames: 8
Frame Time: 0.008333
0.441487 16.001886 0.398086 3.783215 9.643221 4.466130 7.165155 4.618233 1.403497 -30.632915 -12.860423 -23.761383 8.407223 16.056420 54.782867 2.200767 1.175106 -27.275918 0.834900 -5.829100 -16.289400 -8.054156 -5.213169 0.544642 20.724752 0.819043 -26.088129 -10.413511 -16.909505 60.018538 -1.322621 -12.244143 -33.378553 -0.790000 5.673900 -15.841300 -1.079667 3.225848 10.848201 -0.331795 4.215117 -0.313987 -0.948951 2.076960 -0.637727 -5.319607 -4.165231 -8.258823 3.710028 -5.531652 22.614355 1.807800 -2.755300 9.440100 -0.780571 -4.556978 3.162818 -38.305567 -13.235687 50.103138 151.847647 -34.294170 -111.625992 -5.758345 -3.309380 -77.630812 -53.707925 41.596779 -35.765700 -7.125000 0.000000 0.000000 -80.863300 51.950500 -28.385400 -0.408296 4.434922 2.043717 40.668112 5.713452 51.397669 -152.598497 34.906239 -109.901640 0.411512 0.106872 -76.897009 57.783072 -3.592564 -4.550300 7.125000 0.000000 0.000000 43.317700 -8.067400 60.210900 
0.441293 15.999361 0.396435 3.833002 9.636162 4.534947 7.170263 4.616679 1.401988 -30.684175 -12.884241 -23.844888 8.423490 16.074202 54.845180 2.200650 1.195867 -27.298536 0.842500 -5.854800 -16.363700 -8.052890 -5.212506 0.557372 20.661323 0.881276 -26.229390 -10.437867 -16.938417 60.112199 -1.249881 -12.577102 -33.290349 -0.872900 5.956800 -16.659000 -1.124736 3.215944 10.926696 -0.341471 4.195695 -0.298068 -0.949446 2.069171 -0.680829 -5.434143 -4.211458 -7.936363 3.829543 -5.608591 22.406677 1.881200 -2.798600 9.289600 -0.790091 -4.545687 3.171114 -38.435653 -13.113630 49.874798 151.843115 -34.327689 -111.613749 -5.755790 -3.328501 -77.622400 -53.934819 41.512802 -35.925600 -7.125000 0.000000 0.000000 -80.890800 51.885900 -28.244200 -0.412665 4.422198 2.046393 40.733980 5.694862 51.217959 -152.575439 34.933174 -109.886154 0.409783 0.108052 -76.814816 57.887286 -3.556321 -4.514800 7.125000 0.000000 0.000000 43.293900 -7.808500 60.504200 
0.440710 15.995575 0.391775 3.777354 9.635126 4.594573 7.174815 4.615325 1.402224 -30.599251 -12.914230 -24.005679 8.448787 16.104315 54.936693 2.200352 1.155580 -27.265298 0.841800 -5.852200 -16.356200 -8.059663 -5.213353 0.571721 20.732765 0.986728 -26.354938 -10.464173 -16.963277 60.209012 -1.199548 -12.802197 -33.230355 -0.921500 6.116000 -17.121500 -1.081877 3.196707 11.068103 -0.332130 4.172751 -0.296973 -0.965638 2.061174 -0.788212 -5.492488 -4.244813 -7.515906 3.905918 -5.668439 22.167522 1.928800 -2.833200 9.100800 -0.797565 -4.531697 3.181010 -38.576134 -13.005223 49.554927 151.855384 -34.339418 -111.616260 -5.758205 -3.330217 -77.664781 -53.994761 41.583010 -36.027900 -7.125000 0.000000 0.000000 -81.027500 51.904300 -28.421600 -0.413733 4.413554 2.049109 40.790340 5.688485 50.985411 -152.551773 34.958987 -109.871596 0.408164 0.108803 -76.803352 57.933640 -3.489143 -4.420600 7.125000 0.000000 0.000000 43.274300 -7.616400 60.709200 
0.440322 15.992468 0.386337 3.670444 9.629974 4.645202 7.177399 4.614190 1.403506 -30.454832 -12.954490 -24.186051 8.478881 16.140627 55.047850 2.191942 1.172434 -27.237846 0.864900 -5.930000 -16.581500 -8.071116 -5.213391 0.585010 20.860861 1.093347 -26.470418 -10.493255 -16.985547 60.311702 -1.223040 -12.635490 -33.210119 -0.870300 5.948000 -16.633700 -1.006455 3.166263 11.212498 -0.294607 4.141895 -0.288676 -0.957183 2.046808 -0.860293 -5.401085 -4.212436 -7.366098 3.819027 -5.619474 22.055917 1.876200 -2.808900 9.007700 -0.790276 -4.520302 3.190320 -38.785050 -13.013664 49.084009 151.793950 -34.407112 -111.587071 -5.741891 -3.306086 -77.686006 -53.703314 41.625601 -35.797000 -7.125000 0.000000 0.000000 -80.925800 51.966500 -28.485700 -0.408893 4.414186 2.049074 40.797764 5.755662 50.695327 -152.523654 34.988507 -109.854128 0.407973 0.107871 -76.700081 57.920764 -3.382753 -4.251600 7.125000 0.000000 0.000000 43.257000 -7.481100 60.835700 
0.441099 15.989555 0.381774 3.615783 9.620132 4.741709 7.182569 4.612254 1.404168 -30.368097 -13.014620 -24.385244 8.507964 16.177209 55.155013 2.195502 1.134735 -27.232900 0.856200 -5.900800 -16.496900 -8.076663 -5.211899 0.602322 20.916607 1.191594 -26.660775 -10.525205 -17.017481 60.429314 -1.231855 -12.524514 -33.161025 -0.840500 5.848100 -16.344400 -0.936483 3.145478 11.294084 -0.280554 4.123294 -0.267397 -0.991511 2.037629 -0.876257 -5.302681 -4.172507 -7.229228 3.778180 -5.567810 21.819804 1.842100 -2.779700 8.861100 -0.779556 -4.517920 3.203341 -38.983596 -13.189747 48.531167 151.691815 -34.507383 -111.533675 -5.723229 -3.260705 -77.514860 -53.416054 41.611100 -35.545400 -7.125000 0.000000 0.000000 -80.757700 52.006600 -28.429700 -0.408826 4.419701 2.051392 40.823423 5.884607 50.234665 -152.489417 35.025400 -109.833653 0.408108 0.106465 -76.625803 57.882111 -3.399628 -4.272500 7.125000 0.000000 0.000000 43.266000 -7.584000 60.720800 
0.441099 15.985574 0.379055 3.668359 9.600674 4.895710 7.189496 4.608917 1.404782 -30.403185 -13.104282 -24.595966 8.531810 16.213339 55.258454 2.178038 1.321920 -27.312709 0.900200 -6.046600 -16.919700 -8.076651 -5.207883 0.623516 20.843865 1.298590 -26.918742 -10.559699 -17.061243 60.562383 -1.208591 -12.665016 -33.177758 -0.868800 5.943000 -16.619000 -1.010465 3.107366 11.312620 -0.274978 4.067590 -0.228755 -0.961219 2.007616 -0.847119 -5.288725 -4.111798 -6.975088 3.799356 -5.489366 21.485894 1.853300 -2.744000 8.648000 -0.780298 -4.512765 3.223673 -39.225424 -13.322610 47.783334 151.660604 -34.544942 -111.521995 -5.715752 -3.203368 -77.332978 -53.073002 41.717700 -35.315900 -7.125000 0.000000 0.000000 -80.716000 52.101300 -28.632600 -0.407772 4.414389 2.050979 40.844553 6.166290 49.595203 -152.466407 35.056933 -109.818822 0.407244 0.106500 -76.727372 57.929487 -3.576802 -4.560500 7.125000 0.000000 0.000000 43.291300 -7.757000 60.571500 
0.442069 15.980331 0.377016 3.723200 9.566877 5.016605 7.191450 4.606716 1.404114 -30.444787 -13.143920 -24.763912 8.556750 16.244898 55.356681 2.181887 1.390796 -27.410779 0.933900 -6.156000 -17.237600 -8.080014 -5.202833 0.642082 20.758863 1.413468 -27.123675 -10.598208 -17.102581 60.705186 -1.219507 -12.663326 -33.252231 -0.874900 5.963400 -16.678300 -1.123554 3.060516 11.356081 -0.234751 3.998790 -0.189600 -0.854559 1.968959 -0.820118 -5.223377 -3.973709 -6.871233 3.720332 -5.288191 21.255915 1.812800 -2.649400 8.500600 -0.783391 -4.502653 3.245016 -39.612158 -13.391034 46.730026 151.691806 -34.535731 -111.537260 -5.718314 -3.194453 -77.498185 -52.965951 41.926222 -35.348600 -7.125000 0.000000 0.000000 -80.932400 52.195300 -29.076400 -0.396948 4.407465 2.045971 40.829733 6.514492 48.855257 -152.427967 35.102690 -109.793392 0.405957 0.106823 -76.843244 58.019959 -3.663206 -4.713500 7.125000 0.000000 0.000000 43.292500 -7.704500 60.658100 
0.443332 15.975476 0.375560 3.668373 9.532625 5.104172 7.192372 4.605770 1.401625 -30.356801 -13.136918 -24.954182 8.587694 16.280078 55.464393 2.194823 1.269118 -27.382238 0.916900 -6.101000 -17.077800 -8.087764 -5.201702 0.658626 20.804332 1.522197 -27.293473 -10.633348 -17.135482 60.832605 -1.233023 -12.595986 -33.276413 -0.858900 5.910000 -16.523400 -1.096593 3.061360 11.437496 -0.190566 4.005232 -0.174672 -0.801911 1.973907 -0.948752 -5.462180 -4.007160 -5.794683 3.898878 -5.356348 20.533821 1.945300 -2.705900 7.971800 -0.790620 -4.494475 3.272521 -40.105831 -13.585941 45.775394 151.686697 -34.585862 -111.516297 -5.713816 -3.212746 -77.615400 -53.179914 41.938683 -35.557800 -7.125000 0.000000 0.000000 -81.082600 52.165100 -29.142900 -0.399199 4.391873 2.053533 40.920617 6.699208 48.126162 -152.332898 35.212847 -109.727153 0.398615 0.113442 -76.837792 58.534133 -3.623916 -4.755200 7.125000 0.000000 0.000000 43.208300 -6.601400 61.917700 
